<?xml version="1.0" encoding="UTF-8" standalone="no"?>
<!-- Created with Inkscape (http://www.inkscape.org/) -->

<svg
   xmlns:dc="http://purl.org/dc/elements/1.1/"
   xmlns:cc="http://creativecommons.org/ns#"
   xmlns:rdf="http://www.w3.org/1999/02/22-rdf-syntax-ns#"
   xmlns:svg="http://www.w3.org/2000/svg"
   xmlns="http://www.w3.org/2000/svg"
   xmlns:sodipodi="http://sodipodi.sourceforge.net/DTD/sodipodi-0.dtd"
   xmlns:inkscape="http://www.inkscape.org/namespaces/inkscape"
   width="48.524284mm"
   height="13.515137mm"
   viewBox="0 0 171.93644 47.888279"
   id="svg2"
   version="1.1"
   inkscape:version="0.92.3 (2405546, 2018-03-11)"
   sodipodi:docname="Logo_ohne_Spruch_ohne_tld_vektorisiert.svg">
  <defs
     id="defs4" />
  <sodipodi:namedview
     id="base"
     pagecolor="#ffffff"
     bordercolor="#666666"
     borderopacity="1.0"
     inkscape:pageopacity="0.0"
     inkscape:pageshadow="2"
     inkscape:zoom="3.5904411"
     inkscape:cx="94.67875"
     inkscape:cy="77.877129"
     inkscape:document-units="px"
     inkscape:current-layer="layer1"
     showgrid="false"
     inkscape:window-width="1920"
     inkscape:window-height="1051"
     inkscape:window-x="0"
     inkscape:window-y="0"
     inkscape:window-maximized="1"
     fit-margin-top="0"
     fit-margin-left="0"
     fit-margin-right="0"
     fit-margin-bottom="0"
     showguides="true"
     inkscape:guide-bbox="true">
    <inkscape:grid
       type="xygrid"
       id="grid4155"
       originx="0"
       originy="-44.459795" />
  </sodipodi:namedview>
  <metadata
     id="metadata7">
    <rdf:RDF>
      <cc:Work
         rdf:about="">
        <dc:format>image/svg+xml</dc:format>
        <dc:type
           rdf:resource="http://purl.org/dc/dcmitype/StillImage" />
        <dc:title></dc:title>
      </cc:Work>
    </rdf:RDF>
  </metadata>
  <g
     inkscape:label="Ebene 1"
     inkscape:groupmode="layer"
     id="layer1"
     transform="translate(0,-982.24402)">
    <path
       style="fill:#ff8000;fill-opacity:1"
       d="M 5.9623432,982.24402 H 165.97409 c 3.30314,0 5.96234,2.6592 5.96234,5.96234 v 35.96354 c 0,3.3032 -2.6592,5.9624 -5.96234,5.9624 H 5.9623432 C 2.6592051,1030.1323 0,1027.4731 0,1024.1699 v -35.96354 c 0,-3.30314 2.6592051,-5.96234 5.9623432,-5.96234 z"
       id="rect3344"
       inkscape:connector-curvature="0"
       sodipodi:nodetypes="sssssssss" />
    <flowRoot
       xml:space="preserve"
       id="flowRoot3343"
       style="font-style:normal;font-weight:normal;line-height:0.01%;font-family:sans-serif;letter-spacing:0px;word-spacing:0px;fill:#000000;fill-opacity:1;stroke:none;stroke-width:1px;stroke-linecap:butt;stroke-linejoin:miter;stroke-opacity:1"
       inkscape:export-xdpi="900"
       inkscape:export-ydpi="900"><flowRegion
         id="flowRegion3345"><rect
           id="rect3347"
           width="223"
           height="70"
           x="0.33978271"
           y="0.11816262" /></flowRegion><flowPara
         id="flowPara3349"
         style="font-size:40px;line-height:1.25"> </flowPara></flowRoot>    <g
       aria-label="MetaGer.de"
       style="font-style:normal;font-weight:normal;line-height:0%;font-family:sans-serif;letter-spacing:0px;word-spacing:55.29005814px;fill:#ffffff;fill-opacity:1;stroke:none;stroke-width:1px;stroke-linecap:butt;stroke-linejoin:miter;stroke-opacity:1"
       id="text3351">
      <path
         d="m 15.455532,995.20526 h 7.506104 l 3.046875,12.58424 7.998046,-12.58424 h 7.807618 l -4.61792,23.69264 h -5.792237 l 3.380127,-17.4878 -8.220214,12.9333 h -3.284913 l -3.269043,-12.9333 -3.380127,17.4878 h -5.792236 z"
         style="word-spacing:0px"
         id="path862"
         inkscape:connector-curvature="0" />
      <path
         d="m 60.057739,1010.6777 -0.190429,0.9045 H 46.56897 q 0,0.095 -0.01587,0.2857 -0.01587,0.1745 -0.01587,0.2697 0,1.7298 1.031495,2.5867 1.047363,0.8569 3.12622,0.8569 1.793213,0 3.776856,-0.5395 1.999511,-0.5396 4.189453,-1.6028 l -0.872803,4.4116 q -2.078857,0.7617 -4.141846,1.1267 -2.047119,0.3809 -4.173584,0.3809 -4.157714,0 -6.427001,-1.9202 -2.253418,-1.9201 -2.253418,-5.4272 0,-2.0313 0.714111,-3.9356 0.72998,-1.9201 2.110596,-3.507 1.634521,-1.9043 3.903808,-2.8882 2.285156,-0.9839 5.062256,-0.9839 3.602295,0 5.712891,1.9201 2.126464,1.9202 2.126464,5.1734 0,0.6348 -0.09521,1.3489 -0.07935,0.6982 -0.269776,1.5393 z m -5.363769,-2.6026 q 0.04761,-0.2063 0.06348,-0.4126 0.03174,-0.2221 0.03174,-0.4284 0,-1.2696 -0.761719,-2.0154 -0.761719,-0.7459 -2.062988,-0.7459 -1.66626,0 -2.840577,0.9204 -1.158447,0.9046 -1.777343,2.6819 z"
         style="word-spacing:0px"
         id="path864"
         inkscape:connector-curvature="0" />
      <path
         d="m 72.16021,996.07806 -0.968018,5.04644 h 5.808106 l -0.809327,4.0625 h -5.808105 l -1.459961,7.5219 q -0.06348,0.2539 -0.09521,0.4285 -0.01587,0.1746 -0.01587,0.3332 0,0.73 0.476074,1.0474 0.491944,0.3174 1.634522,0.3174 h 2.935791 l -0.809326,4.0625 H 68.27227 q -2.570801,0 -3.919678,-1.0791 -1.348876,-1.0791 -1.348876,-3.1104 0,-0.4443 0.04761,-0.9521 0.04761,-0.5078 0.142822,-1.0315 l 1.459961,-7.5378 H 61.86114 l 0.777588,-4.0625 h 2.824707 l 0.983887,-5.04644 z"
         style="word-spacing:0px"
         id="path866"
         inkscape:connector-curvature="0" />
      <path
         d="m 86.712215,1010.8998 q -2.126464,0 -3.221435,0.6665 -1.079102,0.6507 -1.079102,1.9361 0,0.968 0.634766,1.5234 0.650635,0.5554 1.777344,0.5554 1.745605,0 2.919922,-1.0473 1.174316,-1.0633 1.571044,-2.9834 l 0.126954,-0.6507 z m 8.87085,-2.1423 -1.983643,10.1404 H 87.91827 l 0.476074,-2.6343 q -1.396484,1.5869 -2.95166,2.3486 -1.555176,0.7459 -3.380127,0.7459 -2.523193,0 -4.014892,-1.3013 -1.47583,-1.3171 -1.47583,-3.5388 0,-3.396 2.618408,-5.1892 2.634277,-1.8091 7.585449,-1.8091 h 3.348389 l 0.06348,-0.4443 q 0.04761,-0.2222 0.04761,-0.3174 0.01587,-0.095 0.01587,-0.1746 0,-1.0473 -0.999756,-1.571 -0.983887,-0.5396 -2.935791,-0.5396 -1.761475,0 -3.411865,0.365 -1.650391,0.365 -3.189698,1.095 l 0.856934,-4.3323 q 1.777344,-0.4443 3.634033,-0.6665 1.872559,-0.238 3.872071,-0.238 3.951416,0 5.871582,1.3647 1.920166,1.3489 1.920166,4.126 0,0.5396 -0.07935,1.1902 -0.06348,0.6348 -0.206299,1.3806 z"
         style="word-spacing:0px"
         id="path868"
         inkscape:connector-curvature="0" />
      <path
         d="m 120.11676,1017.1364 q -2.3169,1.1267 -4.80835,1.6821 -2.49146,0.5396 -5.33203,0.5396 -5.04639,0 -7.93457,-2.5549 -2.888188,-2.5708 -2.888188,-6.9983 0,-2.8723 0.904538,-5.3797 0.90454,-2.5232 2.69776,-4.60202 2.18994,-2.53906 5.15747,-3.79272 2.9834,-1.25367 6.80786,-1.25367 2.12646,0 4.28467,0.44434 2.1582,0.44434 4.25293,1.31714 l -0.93628,4.90353 q -1.93604,-1.1267 -3.79273,-1.6821 -1.84082,-0.55542 -3.71338,-0.55542 -4.09423,0 -6.66504,2.72952 -2.5708,2.7295 -2.5708,7.0141 0,2.8406 1.4917,4.4117 1.50757,1.571 4.23706,1.571 0.88868,0 1.77735,-0.1111 0.88867,-0.1269 1.79321,-0.3808 l 0.90454,-4.6021 h -3.72925 l 0.77759,-4.0942 h 9.48975 z"
         style="word-spacing:0px"
         id="path870"
         inkscape:connector-curvature="0" />
      <path
         d="m 143.04891,1010.6777 -0.19043,0.9045 h -13.29834 q 0,0.095 -0.0159,0.2857 -0.0159,0.1745 -0.0159,0.2697 0,1.7298 1.03149,2.5867 1.04737,0.8569 3.12623,0.8569 1.79321,0 3.77685,-0.5395 1.99951,-0.5396 4.18945,-1.6028 l -0.8728,4.4116 q -2.07886,0.7617 -4.14184,1.1267 -2.04712,0.3809 -4.17359,0.3809 -4.15771,0 -6.427,-1.9202 -2.25342,-1.9201 -2.25342,-5.4272 0,-2.0313 0.71411,-3.9356 0.72998,-1.9201 2.1106,-3.507 1.63452,-1.9043 3.90381,-2.8882 2.28515,-0.9839 5.06225,-0.9839 3.6023,0 5.71289,1.9201 2.12647,1.9202 2.12647,5.1734 0,0.6348 -0.0952,1.3489 -0.0793,0.6982 -0.26977,1.5393 z m -5.36377,-2.6026 q 0.0476,-0.2063 0.0635,-0.4126 0.0317,-0.2221 0.0317,-0.4284 0,-1.2696 -0.76172,-2.0154 -0.76171,-0.7459 -2.06298,-0.7459 -1.66626,0 -2.84058,0.9204 -1.15845,0.9046 -1.77734,2.6819 z"
         style="word-spacing:0px"
         id="path872"
         inkscape:connector-curvature="0" />
      <path
         d="m 160.39604,1005.9645 q -0.58716,-0.3332 -1.30127,-0.5078 -0.71411,-0.1745 -1.53931,-0.1745 -2.17407,0 -3.61816,1.3964 -1.42822,1.3965 -1.93604,4.0308 l -1.61865,8.1885 h -5.69702 l 3.45947,-17.7734 h 5.71289 l -0.61889,3.0468 q 1.1267,-1.6821 2.80883,-2.5708 1.698,-0.9045 3.76099,-0.9045 0.30151,0 0.68237,0.032 0.38086,0.032 0.90454,0.095 z"
         style="word-spacing:0px"
         id="path874"
         inkscape:connector-curvature="0" />
    </g>
  </g>
</svg>
